<svg xmlns="http://www.w3.org/2000/svg" viewBox="0 0 102 32" fill="#FF5A5F">
  <path d="M27.1 19.9c-.4-.9-.9-1.8-1.5-2.5l-.1-.1-6.1-7.9-.1-.1c-.5-.6-1.1-1-1.9-1-.8 0-1.4.4-1.9 1l-.1.1-6.1 7.9-.1.1c-.6.7-1.1 1.6-1.5 2.5-.4 1-.6 2-.6 3 0 1.1.2 2.1.7 3 .5 1 1.2 1.8 2.1 2.4.9.6 2 .9 3.1.9.7 0 1.4-.1 2-.4.6-.3 1.2-.6 1.7-1 .1-.1.2-.1.3-.2.1.1.2.1.3.2.5.4 1.1.8 1.7 1 .6.3 1.3.4 2 .4 1.1 0 2.2-.3 3.1-.9.9-.6 1.6-1.4 2.1-2.4.5-.9.7-2 .7-3 0-1-.2-2-.6-3zm-9.7 6.8c-.4-.3-.8-.6-1.1-1-.4-.5-.6-1.1-.6-1.7 0-.6.2-1.2.6-1.7.4-.5.9-.7 1.5-.7.6 0 1.1.2 1.5.7.4.5.6 1.1.6 1.7 0 .6-.2 1.2-.6 1.7-.3.4-.7.7-1.1 1-.1.1-.3.1-.4.2-.2-.1-.3-.2-.4-.2zm8.1-2.9c-.3.7-.8 1.2-1.4 1.6-.6.4-1.3.5-2 .5-.5 0-1-.1-1.4-.3-.4-.2-.8-.4-1.2-.7.4-.5.7-1 .9-1.5.3-.7.4-1.4.4-2.2 0-.9-.2-1.7-.6-2.5l-3.5-4.5-3.5 4.5c-.4.8-.6 1.6-.6 2.5 0 .7.1 1.4.4 2.1.2.5.5 1.1.9 1.5-.4.3-.8.6-1.2.7-.4.2-.9.3-1.4.3-.7 0-1.4-.2-2-.5-.6-.4-1.1-.9-1.4-1.6-.3-.7-.5-1.4-.5-2.2 0-.7.1-1.4.4-2 .3-.7.7-1.3 1.2-1.9l6.1-7.9c.2-.2.4-.3.6-.3.2 0 .4.1.6.3l6.1 7.9c.5.6.9 1.2 1.2 1.9.3.6.4 1.3.4 2-.2.8-.4 1.5-.7 2.2z"/>
  <text x="34" y="23" font-family="Cereal,Arial,sans-serif" font-size="16" font-weight="700" fill="#FF5A5F">airbnb</text>
</svg>
